<?xml version="1.0" encoding="utf-8"?>
<!-- Generator: Adobe Illustrator 25.2.0, SVG Export Plug-In . SVG Version: 6.00 Build 0)  -->
<svg version="1.1" id="Layer_1" xmlns="http://www.w3.org/2000/svg" xmlns:xlink="http://www.w3.org/1999/xlink" x="0px" y="0px"
	 viewBox="0 0 114 35" style="enable-background:new 0 0 114 35;" xml:space="preserve">
<style type="text/css">
	.st0{fill:#58595B;}
</style>
<g>
	<g>
		<polygon class="st0" points="101.9,17.6 91.1,28.4 97,34.3 113.7,17.6 97,1 91.1,6.9 		"/>
		<polygon class="st0" points="79.4,17.6 68.6,28.4 74.5,34.3 91.1,17.6 74.5,1 68.6,6.9 		"/>
		<polygon class="st0" points="56.8,17.6 46.1,28.4 51.9,34.3 68.6,17.6 51.9,1 46.1,6.9 		"/>
		<polygon class="st0" points="34.3,17.6 23.5,28.4 29.4,34.3 46.1,17.6 29.4,1 23.5,6.9 		"/>
		<polygon class="st0" points="11.8,17.6 1,28.4 6.9,34.3 23.5,17.6 6.9,1 1,6.9 		"/>
	</g>
</g>
</svg>
