<?xml version="1.0" encoding="utf-8"?>
<!-- Generator: Adobe Illustrator 25.2.0, SVG Export Plug-In . SVG Version: 6.00 Build 0)  -->
<svg version="1.1" id="Layer_1" xmlns="http://www.w3.org/2000/svg" xmlns:xlink="http://www.w3.org/1999/xlink" x="0px" y="0px"
	 viewBox="0 0 404 404" style="enable-background:new 0 0 404 404;" xml:space="preserve">
<style type="text/css">
	.st0{fill:#1F1F1F;}
	.st1{fill:#3C717A;}
</style>
<g>
	<path class="st0" d="M333.2,54.3l-6.7,6.7l-5.4,5.4c-1.8-1.5-3.7-3-5.6-4.5C285,38.5,246.8,24.6,205.3,24.6
		c-48.2,0-91.9,18.8-124.4,49.6c-34.7,33-56.4,79.5-56.4,131.2c0,44,15.7,84.4,41.9,115.7l-12.2,12.2c-0.5-0.6-1-1.1-1.6-1.7
		c-71.9-77.7-70.2-198.7,4.9-273.9c2.6-2.6,5.3-5.2,8.1-7.6c70.4-63,175.2-66.5,249.8-10.6c1.8,1.4,3.6,2.8,5.4,4.2
		c3.3,2.7,6.6,5.5,9.8,8.4C331.6,52.8,332.4,53.5,333.2,54.3z"/>
	<path class="st1" d="M380.7,113.1c-3.5-6.7-7.5-13.2-11.7-19.4c0,0,0,0,0,0v0c-0.8-1.2-1.6-2.4-2.5-3.6
		c-5.4-7.5-11.3-14.7-17.7-21.4c-2.5-2.6-5-5.1-7.6-7.5c-3.4-3.2-6.8-6.2-10.4-9.2c-3.7-3-7.5-5.9-11.4-8.7
		c-0.9-0.7-1.9-1.3-2.8-1.9c0,0,0,0,0,0h0c-31.7-21.5-70-34.1-111.2-34.1c-51.6,0-98.5,19.7-133.8,52C32.1,95.5,7.3,147.5,7.3,205.3
		c0,48,17,91.9,45.4,126.2c29.8,36,72.1,61.3,120.3,69.2c10.5,1.7,21.3,2.6,32.3,2.6c26.6,0,51.9-5.2,75.1-14.7
		c72.1-29.6,123-100.5,123-183.3C403.4,172,395.2,140.6,380.7,113.1z M271,373.8c-20.4,8-42.5,12.3-65.7,12.3
		c-7.1,0-14-0.4-20.9-1.2c-47.3-5.4-89-29.1-118-63.9c-26.2-31.4-41.9-71.7-41.9-115.7c0-51.7,21.7-98.3,56.4-131.2
		c32.4-30.7,76.2-49.6,124.4-49.6c41.4,0,79.6,13.9,110.1,37.4c1.9,1.5,3.8,3,5.6,4.5c0.9,0.7,1.7,1.4,2.5,2.1
		c6.3,5.5,12.3,11.4,17.8,17.7c2.3,2.7,4.5,5.4,6.7,8.1c8.3,10.6,15.4,22.2,21.1,34.5c0,0,0,0,0,0c10.8,23.2,16.9,49.1,16.9,76.4
		C386.1,282,338.4,347.5,271,373.8z"/>
</g>
</svg>
