<?xml version="1.0" encoding="utf-8"?>
<!-- Generator: Adobe Illustrator 25.2.0, SVG Export Plug-In . SVG Version: 6.00 Build 0)  -->
<svg version="1.1" id="Layer_1" xmlns="http://www.w3.org/2000/svg" xmlns:xlink="http://www.w3.org/1999/xlink" x="0px" y="0px"
	 viewBox="0 0 115 64" style="enable-background:new 0 0 115 64;" xml:space="preserve">
<style type="text/css">
	.st0{fill:#D1D3D4;}
</style>
<g>
	<path class="st0" d="M102.9,57.8c0-3.2,2.6-5.8,5.8-5.8c3.2,0,5.8,2.6,5.8,5.8c0,3.2-2.6,5.8-5.8,5.8
		C105.6,63.6,102.9,61,102.9,57.8z"/>
	<path class="st0" d="M77.5,57.8c0-3.2,2.6-5.8,5.8-5.8c3.2,0,5.8,2.6,5.8,5.8c0,3.2-2.6,5.8-5.8,5.8C80.1,63.6,77.5,61,77.5,57.8z"
		/>
	<path class="st0" d="M63.6,57.8c0,2.7-1.8,5-4.3,5.6c-2.2-2.8-4.4-5.5-6.7-8.1c0.9-2,2.9-3.3,5.2-3.3C61,52,63.6,54.6,63.6,57.8z"
		/>
	<path class="st0" d="M102.9,32.3c0-3.2,2.6-5.8,5.8-5.8c3.2,0,5.8,2.6,5.8,5.8c0,3.2-2.6,5.8-5.8,5.8
		C105.6,38.1,102.9,35.5,102.9,32.3z"/>
	<path class="st0" d="M77.5,32.3c0-3.2,2.6-5.8,5.8-5.8c3.2,0,5.8,2.6,5.8,5.8c0,3.2-2.6,5.8-5.8,5.8C80.1,38.1,77.5,35.5,77.5,32.3
		z"/>
	<path class="st0" d="M52,32.3c0-3.2,2.6-5.8,5.8-5.8c3.2,0,5.8,2.6,5.8,5.8c0,3.2-2.6,5.8-5.8,5.8C54.6,38.1,52,35.5,52,32.3z"/>
	<path class="st0" d="M38.1,32.3c0,2.3-1.4,4.4-3.4,5.3c-0.8-0.7-1.7-1.4-2.5-2.1c-1.8-1.5-3.7-3-5.6-4.5c0.6-2.6,2.9-4.5,5.7-4.5
		c2.4,0,4.5,1.5,5.4,3.6C38,30.7,38.1,31.5,38.1,32.3z"/>
	<path class="st0" d="M102.9,6.8c0-3.2,2.6-5.8,5.8-5.8c3.2,0,5.8,2.6,5.8,5.8c0,3.2-2.6,5.8-5.8,5.8C105.6,12.7,102.9,10,102.9,6.8
		z"/>
	<path class="st0" d="M77.5,6.8c0-3.2,2.6-5.8,5.8-5.8c3.2,0,5.8,2.6,5.8,5.8c0,3.2-2.6,5.8-5.8,5.8C80.1,12.7,77.5,10,77.5,6.8z"/>
	<path class="st0" d="M52,6.8C52,3.6,54.6,1,57.8,1c3.2,0,5.8,2.6,5.8,5.8c0,3.2-2.6,5.8-5.8,5.8C54.6,12.7,52,10,52,6.8z"/>
	<path class="st0" d="M26.5,6.8c0-3.2,2.6-5.8,5.8-5.8c3.2,0,5.8,2.6,5.8,5.8c0,3.2-2.6,5.8-5.8,5.8C29.1,12.7,26.5,10,26.5,6.8z"/>
	<path class="st0" d="M1,6.8C1,3.6,3.6,1,6.8,1c3.2,0,5.8,2.6,5.8,5.8c0,3.2-2.6,5.8-5.8,5.8C3.6,12.7,1,10,1,6.8z"/>
</g>
</svg>
