<?xml version="1.0" encoding="utf-8"?>
<!-- Generator: Adobe Illustrator 25.2.0, SVG Export Plug-In . SVG Version: 6.00 Build 0)  -->
<svg version="1.1" id="Layer_1" xmlns="http://www.w3.org/2000/svg" xmlns:xlink="http://www.w3.org/1999/xlink" x="0px" y="0px"
	 viewBox="0 0 113 34" style="enable-background:new 0 0 113 34;" xml:space="preserve">
<style type="text/css">
	.st0{fill:#58595B;}
</style>
<g>
	<polygon class="st0" points="11.8,17 22.5,27.8 16.6,33.6 0,17 16.6,0.4 22.5,6.2 	"/>
	<polygon class="st0" points="34.3,17 45.1,27.8 39.2,33.6 22.5,17 39.2,0.4 45.1,6.2 	"/>
	<polygon class="st0" points="56.8,17 67.6,27.8 61.7,33.6 45.1,17 61.7,0.4 67.6,6.2 	"/>
	<polygon class="st0" points="79.4,17 90.1,27.8 84.2,33.6 67.6,17 84.2,0.4 90.1,6.2 	"/>
	<polygon class="st0" points="101.9,17 112.7,27.8 106.8,33.6 90.1,17 106.8,0.4 112.7,6.2 	"/>
</g>
</svg>
