<?xml version="1.0" encoding="utf-8"?>
<!-- Generator: Adobe Illustrator 25.2.0, SVG Export Plug-In . SVG Version: 6.00 Build 0)  -->
<svg version="1.1" id="Layer_1" xmlns="http://www.w3.org/2000/svg" xmlns:xlink="http://www.w3.org/1999/xlink" x="0px" y="0px"
	 viewBox="0 0 32 35" style="enable-background:new 0 0 32 35;" xml:space="preserve">
<style type="text/css">
	.st0{fill:#58595B;}
</style>
<g>
	<path class="st0" d="M28.7,34.6H17.2C8.3,34.6,1,27.1,1,17.8S8.3,1,17.2,1h11.5c1.7,0,3.1,1.4,3.1,3.1s-1.4,3.1-3.1,3.1H17.2
		c-5.5,0-9.9,4.7-9.9,10.6s4.5,10.6,9.9,10.6h11.5c1.7,0,3.1,1.4,3.1,3.1C31.8,33.2,30.4,34.6,28.7,34.6z"/>
	<path class="st0" d="M26.5,20.9h-8.6c-1.9,0-3.5-1.6-3.5-3.5l0,0c0-1.9,1.6-3.5,3.5-3.5h8.6c1.9,0,3.5,1.6,3.5,3.5l0,0
		C30,19.3,28.4,20.9,26.5,20.9z"/>
</g>
</svg>
